<?xml version="1.0" encoding="UTF-8" standalone="no"?>
<svg
   xmlns:dc="http://purl.org/dc/elements/1.1/"
   xmlns:cc="http://creativecommons.org/ns#"
   xmlns:rdf="http://www.w3.org/1999/02/22-rdf-syntax-ns#"
   xmlns:svg="http://www.w3.org/2000/svg"
   xmlns="http://www.w3.org/2000/svg"
   width="64.634521mm"
   height="34.368195mm"
   viewBox="0 0 64.634521 34.368195"
   version="1.1"
   id="svg8">
  <defs
     id="defs2">
    <rect
       x="11.870216"
       y="80.363968"
       width="177.1524"
       height="51.846191"
       id="rect12" />
  </defs>
  <metadata
     id="metadata5">
    <rdf:RDF>
      <cc:Work
         rdf:about="">
        <dc:format>image/svg+xml</dc:format>
        <dc:type
           rdf:resource="http://purl.org/dc/dcmitype/StillImage" />
        <dc:title></dc:title>
      </cc:Work>
    </rdf:RDF>
  </metadata>
  <g
     transform="translate(-45.916189,-128.05023)"
     style="display:none"
     id="layer1">
    <g
       style="font-style:normal;font-weight:normal;font-size:36.8851px;line-height:1.25;font-family:sans-serif;fill:#3771c8;fill-opacity:1;stroke:none;stroke-width:0.922126"
       id="g51"
       aria-label="W"
       transform="translate(9.488315,25.22409)" />
    <g
       aria-label="G"
       id="text55"
       style="font-style:normal;font-weight:normal;font-size:40.5007px;line-height:1.25;font-family:sans-serif;fill:#3771c8;fill-opacity:1;stroke:none;stroke-width:1.01252" />
    <path
       id="rect57"
       style="fill:#3771c8;stroke-width:0.359417"
       d="m 29.527707,128.5794 h 96.353153 v 42.53011 H 29.527707 Z" />
  </g>
  <g
     transform="translate(-45.916189,-128.05023)"
     id="layer4">
    <g
       transform="matrix(4.0957262,0,0,4.0957262,4.3285862,-296.81252)"
       style="font-style:normal;font-weight:normal;font-size:10.5833px;line-height:1.25;font-family:sans-serif;display:inline;fill:#3771c8;fill-opacity:1;stroke:none;stroke-width:0.264583"
       id="g31"
       aria-label="M">
      <path
         transform="scale(0.26458333)"
         d="m 91.128906,392.55078 c -1.13323,0 -2.341989,0.2582 -3.61914,0.75391 -0.630255,0.13002 -1.345249,0.24725 -2.154297,0.35156 -0.826666,0.10696 -1.627062,0.21373 -2.400391,0.32031 -0.879999,0.10659 -1.77302,0.22596 -2.679687,0.35938 l -3.798829,17.20117 h -0.720703 c 0.08001,-0.77333 0.160222,-1.70744 0.240235,-2.80078 0.106696,-1.09334 0.213654,-2.23949 0.320312,-3.43945 0.106696,-1.22669 0.213654,-2.46738 0.320313,-3.72071 0.106696,-1.28001 0.213654,-2.4385 0.320312,-3.47851 0.106659,-1.06666 0.184952,-1.97406 0.238281,-2.72071 0.08001,-0.74679 0.147843,-1.24047 0.201172,-1.48047 -0.479996,0.10659 -0.947055,0.20113 -1.40039,0.28125 -0.426664,0.0533 -0.893726,0.10492 -1.400391,0.15821 -0.479996,0.0537 -0.959453,0.0801 -1.439453,0.0801 h -0.359375 c -0.13333,0.53332 -0.320547,1.1876 -0.560547,1.96093 -0.213332,0.77333 -0.454057,1.61286 -0.720703,2.51953 -0.24,0.90668 -0.505499,1.8532 -0.798828,2.83985 -0.266665,0.96 -0.626747,2.22744 -1.080078,3.80078 -0.453332,1.54666 -1.027372,3.54667 -1.720703,6 h -0.59961 c 0.506665,-3.2533 0.90589,-5.80064 1.199219,-7.64063 0.320001,-1.83998 0.560716,-3.2803 0.720703,-4.32031 0.159972,-1.06666 0.306112,-2.01318 0.439453,-2.83984 0.133342,-0.85334 0.2403,-1.53242 0.320313,-2.03906 0.08001,-0.5333 0.148437,-1.34269 0.148437,-1.36915 -1.093326,0.0799 -1.932739,0.27084 -3.052734,0.48438 -0.03997,0.007 -0.08796,0.0214 -0.128906,0.0293 -0.665603,0.12279 -1.294562,0.23643 -1.867188,0.33593 -0.586666,0.0801 -1.173102,0.17272 -1.759765,0.2793 -0.586666,0.0801 -1.1731,0.16036 -1.759766,0.24024 -0.586663,0.0799 -1.212241,0.14775 -1.878906,0.20117 -0.266666,0.56 -0.560862,1.21232 -0.88086,1.95898 -0.293334,0.72 -0.612321,1.49366 -0.958984,2.32031 -0.32,0.8 -0.640938,1.62713 -0.960938,2.48047 -0.319997,0.85332 -0.733568,1.96032 -1.240234,3.32032 -0.506666,1.33334 -1.146593,3.0124 -1.919922,5.03906 h -0.519531 c 0.320007,-2 0.573107,-3.66666 0.759765,-5 0.186656,-1.33332 0.347128,-2.42596 0.480469,-3.2793 0.133342,-0.85332 0.252717,-1.68047 0.359375,-2.48047 0.133342,-0.8 0.240313,-1.55929 0.320313,-2.27929 0.106658,-0.74666 0.199297,-1.41335 0.279297,-2 -1.519995,0.13331 -2.933574,0.27945 -4.240235,0.43945 -1.306663,0.16 -2.693493,0.24023 -4.160156,0.24023 -0.319997,1.22666 -0.692475,2.56 -1.119141,4 -0.4,1.44 -0.840315,2.93381 -1.320312,4.48047 -0.479998,1.54666 -0.959453,3.10635 -1.439453,4.67969 -0.479998,1.57332 -0.947059,3.07953 -1.400391,4.51953 -1.066663,3.41332 -2.186046,6.8928 -3.359375,10.43945 l 6.599609,-0.43945 c 0.02668,-0.08 0.133655,-0.42572 0.320313,-1.03906 0.186668,-0.64 0.413022,-1.44039 0.679687,-2.40039 0.293332,-0.98666 0.599925,-2.04016 0.919922,-3.16016 0.32,-1.14666 0.614194,-2.24125 0.88086,-3.28125 0.293324,-1.06666 0.546424,-1.99883 0.759765,-2.79883 0.213324,-0.82666 0.345096,-1.41308 0.398438,-1.75976 h 0.601562 l -1.28125,14.83984 c 0.879998,-0.0534 1.65365,-0.0944 2.320313,-0.12109 0.666666,-0.0532 1.467061,-0.0924 2.40039,-0.11914 0.346666,-1.12 0.745888,-2.29288 1.199219,-3.51953 0.453332,-1.22666 0.907997,-2.47977 1.361328,-3.75977 0.48,-1.28 0.945106,-2.53506 1.398438,-3.76172 0.453332,-1.25334 0.866903,-2.43859 1.240234,-3.55859 h 0.361328 c -0.133324,0.69334 -0.267049,1.53287 -0.40039,2.51953 -0.133324,0.96 -0.267049,1.96 -0.400391,3 -0.106658,1.04 -0.226033,2.07914 -0.359375,3.11914 -0.106658,1.04 -0.20125,1.98653 -0.28125,2.83984 -0.05332,0.85334 -0.106814,1.5735 -0.160156,2.16016 -0.02666,0.58671 -0.03906,0.94679 -0.03906,1.08008 l 6.132813,-1.09375 5.527344,-0.94727 3.958984,-14.51953 h 0.480469 l -1.759766,15.43945 8.882813,-1.49414 c 0.30135,0.22525 0.612113,0.42829 0.945312,0.58985 0.870691,0.40956 1.780999,0.61523 2.728516,0.61523 1.229209,0 2.521654,-0.32072 3.878906,-0.96094 1.38286,-0.64021 2.663804,-1.61386 3.841797,-2.91992 1.203601,-1.30605 2.227183,-2.91921 3.072266,-4.83984 0.84509,-1.94627 1.357842,-4.22582 1.537109,-6.83789 -0.819475,0.15363 -1.779692,0.32077 -2.880859,0.5 -1.075559,0.17919 -2.101094,0.33297 -3.074219,0.46094 -1.152385,0.15378 -2.329602,0.30714 -3.533203,0.46093 l -0.730469,3.80274 4.111328,-0.61524 c -0.02561,0.74262 -0.192691,1.43401 -0.5,2.07422 -0.281693,0.61462 -0.640824,1.16581 -1.076172,1.65235 -0.435347,0.46086 -0.934657,0.81985 -1.498047,1.07617 -0.537777,0.25631 -1.062046,0.38281 -1.574218,0.38281 -0.74265,0 -1.357186,-0.3322 -1.84375,-0.99805 -0.460941,-0.69143 -0.691407,-1.83023 -0.691407,-3.41797 0.03578,-1.16281 0.178338,-2.33956 0.414063,-3.52734 0.196581,-0.78279 0.393256,-1.54702 0.589844,-2.35938 0.414168,-1.40001 0.896961,-2.70609 1.455078,-3.9082 0.665823,-1.43409 1.382133,-2.5998 2.15039,-3.49609 0.768258,-0.92193 1.473066,-1.38281 2.113282,-1.38281 0.486564,0 0.92056,0.21699 1.304687,0.65234 0.384138,0.43535 0.691422,1.16511 0.921875,2.18945 l 5.263672,-0.99804 c 0,-0.8963 -0.11525,-1.74128 -0.345703,-2.53516 -0.204872,-0.81948 -0.550545,-1.5243 -1.03711,-2.11328 -0.48656,-0.61462 -1.114555,-1.10053 -1.882812,-1.45899 -0.742649,-0.35853 -1.626049,-0.53906 -2.650391,-0.53906 z"
         style="font-style:normal;font-variant:normal;font-weight:normal;font-stretch:normal;font-family:Bangers;-inkscape-font-specification:Bangers;fill:#3771c8;stroke-width:0.999999"
         id="path29" />
    </g>
  </g>
  <g
     transform="translate(-45.916189,-128.05023)"
     style="display:inline"
     id="layer2">
    <g
       aria-label="M"
       id="text87"
       style="font-style:normal;font-weight:normal;font-size:10.5833px;line-height:1.25;font-family:sans-serif;fill:#ffffff;fill-opacity:1;stroke:none;stroke-width:0.264583"
       transform="matrix(4.0957263,0,0,4.0957263,5.3869197,-297.3417)">
      <path
         id="path103"
         style="font-style:normal;font-variant:normal;font-weight:normal;font-stretch:normal;font-family:Bangers;-inkscape-font-specification:Bangers;fill:#ffffff;stroke-width:0.999999"
         d="m 91.128906,392.55078 c -1.13323,0 -2.341989,0.2582 -3.61914,0.75391 -0.630255,0.13002 -1.345249,0.24725 -2.154297,0.35156 -0.826666,0.10696 -1.627062,0.21373 -2.400391,0.32031 -0.879999,0.10659 -1.77302,0.22596 -2.679687,0.35938 l -3.798829,17.20117 h -0.720703 c 0.08001,-0.77333 0.160222,-1.70744 0.240235,-2.80078 0.106696,-1.09334 0.213654,-2.23949 0.320312,-3.43945 0.106696,-1.22669 0.213654,-2.46738 0.320313,-3.72071 0.106696,-1.28001 0.213654,-2.4385 0.320312,-3.47851 0.106659,-1.06666 0.184952,-1.97406 0.238281,-2.72071 0.08001,-0.74679 0.147843,-1.24047 0.201172,-1.48047 -0.479996,0.10659 -0.947055,0.20113 -1.40039,0.28125 -0.426664,0.0533 -0.893726,0.10492 -1.400391,0.15821 -0.479996,0.0537 -0.959453,0.0801 -1.439453,0.0801 h -0.359375 c -0.13333,0.53332 -0.320547,1.1876 -0.560547,1.96093 -0.213332,0.77333 -0.454057,1.61286 -0.720703,2.51953 -0.24,0.90668 -0.505499,1.8532 -0.798828,2.83985 -0.266665,0.96 -0.626747,2.22744 -1.080078,3.80078 -0.453332,1.54666 -1.027372,3.54667 -1.720703,6 h -0.59961 c 0.506665,-3.2533 0.90589,-5.80064 1.199219,-7.64063 0.320001,-1.83998 0.560716,-3.2803 0.720703,-4.32031 0.159972,-1.06666 0.306112,-2.01318 0.439453,-2.83984 0.133342,-0.85334 0.2403,-1.53242 0.320313,-2.03906 0.08001,-0.5333 0.148437,-1.34269 0.148437,-1.36915 -1.093326,0.0799 -1.932739,0.27084 -3.052734,0.48438 -0.03997,0.007 -0.08796,0.0214 -0.128906,0.0293 -0.665603,0.12279 -1.294562,0.23643 -1.867188,0.33593 -0.586666,0.0801 -1.173102,0.17272 -1.759765,0.2793 -0.586666,0.0801 -1.1731,0.16036 -1.759766,0.24024 -0.586663,0.0799 -1.212241,0.14775 -1.878906,0.20117 -0.266666,0.56 -0.560862,1.21232 -0.88086,1.95898 -0.293334,0.72 -0.612321,1.49366 -0.958984,2.32031 -0.32,0.8 -0.640938,1.62713 -0.960938,2.48047 -0.319997,0.85332 -0.733568,1.96032 -1.240234,3.32032 -0.506666,1.33334 -1.146593,3.0124 -1.919922,5.03906 h -0.519531 c 0.320007,-2 0.573107,-3.66666 0.759765,-5 0.186656,-1.33332 0.347128,-2.42596 0.480469,-3.2793 0.133342,-0.85332 0.252717,-1.68047 0.359375,-2.48047 0.133342,-0.8 0.240313,-1.55929 0.320313,-2.27929 0.106658,-0.74666 0.199297,-1.41335 0.279297,-2 -1.519995,0.13331 -2.933574,0.27945 -4.240235,0.43945 -1.306663,0.16 -2.693493,0.24023 -4.160156,0.24023 -0.319997,1.22666 -0.692475,2.56 -1.119141,4 -0.4,1.44 -0.840315,2.93381 -1.320312,4.48047 -0.479998,1.54666 -0.959453,3.10635 -1.439453,4.67969 -0.479998,1.57332 -0.947059,3.07953 -1.400391,4.51953 -1.066663,3.41332 -2.186046,6.8928 -3.359375,10.43945 l 6.599609,-0.43945 c 0.02668,-0.08 0.133655,-0.42572 0.320313,-1.03906 0.186668,-0.64 0.413022,-1.44039 0.679687,-2.40039 0.293332,-0.98666 0.599925,-2.04016 0.919922,-3.16016 0.32,-1.14666 0.614194,-2.24125 0.88086,-3.28125 0.293324,-1.06666 0.546424,-1.99883 0.759765,-2.79883 0.213324,-0.82666 0.345096,-1.41308 0.398438,-1.75976 h 0.601562 l -1.28125,14.83984 c 0.879998,-0.0534 1.65365,-0.0944 2.320313,-0.12109 0.666666,-0.0532 1.467061,-0.0924 2.40039,-0.11914 0.346666,-1.12 0.745888,-2.29288 1.199219,-3.51953 0.453332,-1.22666 0.907997,-2.47977 1.361328,-3.75977 0.48,-1.28 0.945106,-2.53506 1.398438,-3.76172 0.453332,-1.25334 0.866903,-2.43859 1.240234,-3.55859 h 0.361328 c -0.133324,0.69334 -0.267049,1.53287 -0.40039,2.51953 -0.133324,0.96 -0.267049,1.96 -0.400391,3 -0.106658,1.04 -0.226033,2.07914 -0.359375,3.11914 -0.106658,1.04 -0.20125,1.98653 -0.28125,2.83984 -0.05332,0.85334 -0.106814,1.5735 -0.160156,2.16016 -0.02666,0.58671 -0.03906,0.94679 -0.03906,1.08008 l 6.132813,-1.09375 5.527344,-0.94727 3.958984,-14.51953 h 0.480469 l -1.759766,15.43945 8.882813,-1.49414 c 0.30135,0.22525 0.612113,0.42829 0.945312,0.58985 0.870691,0.40956 1.780999,0.61523 2.728516,0.61523 1.229209,0 2.521654,-0.32072 3.878906,-0.96094 1.38286,-0.64021 2.663804,-1.61386 3.841797,-2.91992 1.203601,-1.30605 2.227183,-2.91921 3.072266,-4.83984 0.84509,-1.94627 1.357842,-4.22582 1.537109,-6.83789 -0.819475,0.15363 -1.779692,0.32077 -2.880859,0.5 -1.075559,0.17919 -2.101094,0.33297 -3.074219,0.46094 -1.152385,0.15378 -2.329602,0.30714 -3.533203,0.46093 l -0.730469,3.80274 4.111328,-0.61524 c -0.02561,0.74262 -0.192691,1.43401 -0.5,2.07422 -0.281693,0.61462 -0.640824,1.16581 -1.076172,1.65235 -0.435347,0.46086 -0.934657,0.81985 -1.498047,1.07617 -0.537777,0.25631 -1.062046,0.38281 -1.574218,0.38281 -0.74265,0 -1.357186,-0.3322 -1.84375,-0.99805 -0.460941,-0.69143 -0.691407,-1.83023 -0.691407,-3.41797 0.03578,-1.16281 0.178338,-2.33956 0.414063,-3.52734 0.196581,-0.78279 0.393256,-1.54702 0.589844,-2.35938 0.414168,-1.40001 0.896961,-2.70609 1.455078,-3.9082 0.665823,-1.43409 1.382133,-2.5998 2.15039,-3.49609 0.768258,-0.92193 1.473066,-1.38281 2.113282,-1.38281 0.486564,0 0.92056,0.21699 1.304687,0.65234 0.384138,0.43535 0.691422,1.16511 0.921875,2.18945 l 5.263672,-0.99804 c 0,-0.8963 -0.11525,-1.74128 -0.345703,-2.53516 -0.204872,-0.81948 -0.550545,-1.5243 -1.03711,-2.11328 -0.48656,-0.61462 -1.114555,-1.10053 -1.882812,-1.45899 -0.742649,-0.35853 -1.626049,-0.53906 -2.650391,-0.53906 z"
         transform="scale(0.26458333)" />
    </g>
    <g
       aria-label="W"
       id="text91"
       style="font-style:normal;font-weight:normal;font-size:10.5833px;line-height:1.25;font-family:sans-serif;fill:#000000;fill-opacity:1;stroke:none;stroke-width:0.264583" />
    <g
       aria-label="G"
       id="text95"
       style="font-style:normal;font-variant:normal;font-weight:normal;font-stretch:normal;font-size:9.96604px;line-height:1.25;font-family:Bangers;-inkscape-font-specification:Bangers;fill:#000000;fill-opacity:1;stroke:none;stroke-width:0.249151"
       transform="matrix(1.0198029,0,0,1.0198029,-2.2236509,-2.6277745)" />
  </g>
  <g
     transform="translate(-45.916189,-128.05023)"
     style="display:none"
     id="layer3">
    <text
       xml:space="preserve"
       style="font-style:normal;font-weight:normal;font-size:10.5833px;line-height:1.25;font-family:sans-serif;fill:#000000;fill-opacity:1;stroke:none;stroke-width:0.264583"
       x="51.48019"
       y="170.85551"
       id="text80"><tspan
         id="tspan78"
         x="51.48019"
         y="170.85551"
         style="font-style:normal;font-variant:normal;font-weight:normal;font-stretch:normal;font-family:Bangers;-inkscape-font-specification:Bangers;stroke-width:0.264583">MaWey Games</tspan></text>
  </g>
</svg>
